<svg xmlns="http://www.w3.org/2000/svg" viewBox="0 0 1366 800" role="img" aria-label="SmilePass Membership Builder">
  <defs>
    <style>
      .ff{font-family:'Inter','Helvetica Neue',Arial,sans-serif}
      .nav{font-size:13px;fill:#252156;font-weight:500}
      .nav-mute{font-size:13px;fill:#7B789C;font-weight:400}
      .nav-active{font-size:13px;fill:#7D7AF2;font-weight:600}
      .h1{font-size:20px;fill:#252156;font-weight:600;letter-spacing:-.01em}
      .h2{font-size:14px;fill:#252156;font-weight:600}
      .lbl{font-size:11px;fill:#5F5C7F;font-weight:500;letter-spacing:.06em;text-transform:uppercase}
      .muted{font-size:11.5px;fill:#7B789C}
      .price{font-size:34px;fill:#252156;font-weight:700;letter-spacing:-.02em}
      .price-unit{font-size:13px;fill:#7B789C}
      .plan-name{font-size:18px;fill:#252156;font-weight:600;letter-spacing:-.005em}
      .toggle-label{font-size:11.5px;fill:#5F5C7F;font-weight:500}
      .bullet{font-size:12px;fill:#252156}
      .btn-text{font-size:12px;fill:#FFFFFF;font-weight:600;letter-spacing:.04em}
    </style>
  </defs>
  <rect width="1366" height="800" fill="#F6F4FB"/>

  <!-- Left sidebar -->
  <rect x="0" y="0" width="232" height="800" fill="#FFFFFF"/>
  <rect x="32" y="32" width="32" height="32" rx="8" fill="#7D7AF2"/>
  <path d="M44 48 a8 8 0 0 1 8 0" stroke="#FFFFFF" stroke-width="2.5" fill="none"/>
  <text x="74" y="56" class="ff" font-size="20" fill="#252156" font-weight="700">SmilePass</text>
  <text x="40" y="125" class="ff nav-mute">⌂ Home</text>
  <text x="40" y="173" class="ff nav-mute">⌽ Membership</text>
  <text x="40" y="213" class="ff nav-mute">$ Payment Plan</text>
  <text x="40" y="253" class="ff nav-mute">◔ Reporting</text>
  <text x="40" y="745" class="ff nav-mute">? Support</text>
  <rect x="20" y="755" width="192" height="40" rx="8" fill="#F1F0FD"/>
  <text x="40" y="780" class="ff nav-active">⚙ Settings</text>

  <!-- Top action bar -->
  <rect x="252" y="20" width="1094" height="56" rx="14" fill="#FFFFFF" stroke="#E5E3F0"/>
  <circle cx="290" cy="48" r="18" fill="#7D7AF2"/>
  <text x="290" y="54" class="ff" font-size="18" fill="#FFFFFF" font-weight="600" text-anchor="middle">+</text>
  <rect x="1024" y="32" width="132" height="32" rx="16" fill="#7D7AF2"/>
  <text x="1090" y="52" class="ff" font-size="12" fill="#FFFFFF" font-weight="600" text-anchor="middle">UPGRADE NOW</text>
  <text x="1248" y="44" class="ff" font-size="12" fill="#252156" font-weight="600">Dr Test</text>
  <text x="1248" y="58" class="ff" font-size="10" fill="#7B789C">Practice owner</text>

  <!-- Settings sub-sidebar -->
  <rect x="252" y="92" width="232" height="540" rx="14" fill="#FFFFFF" stroke="#E5E3F0"/>
  <text x="276" y="128" class="ff nav-mute">⌕ My Profile</text>
  <text x="276" y="168" class="ff nav-mute">⌽ Logins &amp; Permissions</text>
  <text x="276" y="208" class="ff nav-mute">⌂ Company</text>
  <text x="276" y="248" class="ff nav-mute">⌖ Locations</text>
  <text x="276" y="288" class="ff nav-mute">↥ Import Patients</text>
  <rect x="272" y="306" width="192" height="36" rx="8" fill="#F1F0FD"/>
  <text x="288" y="329" class="ff nav-active">✎ Membership Builder</text>
  <text x="276" y="368" class="ff nav-mute">✎ Payment Plan Builder</text>
  <text x="276" y="408" class="ff nav-mute">⊕ Addons Builder</text>
  <text x="276" y="448" class="ff nav-mute">⌖ Custom Discounts &amp; Code</text>
  <text x="276" y="488" class="ff nav-mute">▤ Billing and Payout</text>
  <text x="276" y="528" class="ff nav-mute">⛌ Promotional Material</text>
  <text x="276" y="568" class="ff nav-mute">⌬ Subscription</text>
  <text x="276" y="608" class="ff nav-mute">⊗ Integrations</text>

  <!-- Recommended Templates panel -->
  <rect x="504" y="92" width="842" height="160" rx="14" fill="#FFFFFF" stroke="#E5E3F0"/>
  <text x="528" y="124" class="ff h1">Recommended Templates</text>
  <!-- + Create new (purple) -->
  <rect x="528" y="144" width="174" height="88" rx="10" fill="#7D7AF2"/>
  <text x="615" y="184" class="ff" font-size="26" fill="#FFFFFF" font-weight="500" text-anchor="middle">+</text>
  <text x="615" y="210" class="ff" font-size="13" fill="#FFFFFF" font-weight="600" text-anchor="middle">Create New Plan</text>
  <!-- Essentials -->
  <rect x="716" y="144" width="174" height="88" rx="10" fill="#FFFFFF" stroke="#7D7AF2"/>
  <text x="803" y="194" class="ff" font-size="13" fill="#252156" font-weight="500" text-anchor="middle">Essential Plan</text>
  <!-- Comprehensive -->
  <rect x="904" y="144" width="174" height="88" rx="10" fill="#FFFFFF" stroke="#7D7AF2"/>
  <text x="991" y="188" class="ff" font-size="13" fill="#252156" font-weight="500" text-anchor="middle">Comprehensive</text>
  <text x="991" y="204" class="ff" font-size="13" fill="#252156" font-weight="500" text-anchor="middle">Plan</text>
  <!-- Premium -->
  <rect x="1092" y="144" width="174" height="88" rx="10" fill="#FFFFFF" stroke="#7D7AF2"/>
  <text x="1179" y="194" class="ff" font-size="13" fill="#252156" font-weight="500" text-anchor="middle">Premium Plan</text>

  <!-- Search bar -->
  <rect x="504" y="268" width="842" height="44" rx="10" fill="#FFFFFF" stroke="#E5E3F0"/>
  <text x="528" y="294" class="ff" font-size="13" fill="#7B789C">Search Plan…</text>
  <text x="1326" y="294" class="ff" font-size="13" fill="#7B789C" text-anchor="end">⌕</text>

  <!-- 3 existing plan cards -->
  <!-- Card 1: Adult Comprehensive -->
  <rect x="504" y="328" width="270" height="448" rx="14" fill="#FFFFFF" stroke="#E5E3F0"/>
  <rect x="504" y="328" width="270" height="58" fill="#F4F2FB" rx="14"/>
  <rect x="504" y="370" width="270" height="16" fill="#F4F2FB"/>
  <text x="540" y="354" class="ff toggle-label">Accept New</text>
  <text x="540" y="370" class="ff toggle-label">Members</text>
  <rect x="694" y="346" width="40" height="22" rx="11" fill="#7D7AF2"/>
  <circle cx="723" cy="357" r="8" fill="#FFFFFF"/>
  <text x="540" y="416" class="ff muted">142 members</text>
  <text x="639" y="450" class="ff plan-name" text-anchor="middle">Adult Comprehensive</text>
  <text x="639" y="498" class="ff price" text-anchor="middle">$8.50</text>
  <text x="691" y="498" class="ff price-unit">/Week</text>
  <!-- inclusions -->
  <text x="540" y="546" class="ff bullet">✓ 2x Dental Cleans</text>
  <text x="540" y="568" class="ff bullet">✓ 2x Exams + X-Rays</text>
  <text x="540" y="590" class="ff bullet">✓ 15% off other treatments</text>
  <text x="540" y="612" class="ff bullet">✓ FREE Whitening Touch-Up</text>
  <text x="540" y="634" class="ff bullet">✓ Member-only event invites</text>
  <text x="540" y="656" class="ff bullet">✓ Priority booking</text>
  <!-- Edit button -->
  <rect x="588" y="700" width="100" height="36" rx="8" fill="#7D7AF2"/>
  <text x="638" y="722" class="ff btn-text" text-anchor="middle">✎ EDIT</text>

  <!-- Card 2: Family Care (highlighted) -->
  <rect x="788" y="328" width="270" height="448" rx="14" fill="#FFFFFF" stroke="#7D7AF2" stroke-width="2"/>
  <rect x="788" y="328" width="270" height="58" fill="#F1F0FD" rx="14"/>
  <rect x="788" y="370" width="270" height="16" fill="#F1F0FD"/>
  <text x="824" y="354" class="ff toggle-label">Accept New</text>
  <text x="824" y="370" class="ff toggle-label">Members</text>
  <rect x="978" y="346" width="40" height="22" rx="11" fill="#7D7AF2"/>
  <circle cx="1007" cy="357" r="8" fill="#FFFFFF"/>
  <rect x="900" y="394" width="46" height="18" rx="9" fill="#7D7AF2"/>
  <text x="923" y="407" class="ff" font-size="9.5" fill="#FFFFFF" font-weight="700" letter-spacing=".06em" text-anchor="middle">POPULAR</text>
  <text x="824" y="416" class="ff muted">87 family accounts</text>
  <text x="923" y="450" class="ff plan-name" text-anchor="middle">Family Care</text>
  <text x="923" y="498" class="ff price" text-anchor="middle">$12.00</text>
  <text x="985" y="498" class="ff price-unit">/Week</text>
  <text x="824" y="546" class="ff bullet">✓ All Adult Comprehensive</text>
  <text x="824" y="568" class="ff bullet">✓ 10% per dependent</text>
  <text x="824" y="590" class="ff bullet">✓ Free emergency for kids</text>
  <text x="824" y="612" class="ff bullet">✓ Annual fluoride for under-16s</text>
  <text x="824" y="634" class="ff bullet">✓ Sealants for kids on first visit</text>
  <text x="824" y="656" class="ff bullet">✓ Priority booking</text>
  <rect x="872" y="700" width="100" height="36" rx="8" fill="#7D7AF2"/>
  <text x="922" y="722" class="ff btn-text" text-anchor="middle">✎ EDIT</text>

  <!-- Card 3: Hygiene Only -->
  <rect x="1072" y="328" width="270" height="448" rx="14" fill="#FFFFFF" stroke="#E5E3F0"/>
  <rect x="1072" y="328" width="270" height="58" fill="#F4F2FB" rx="14"/>
  <rect x="1072" y="370" width="270" height="16" fill="#F4F2FB"/>
  <text x="1108" y="354" class="ff toggle-label">Accept New</text>
  <text x="1108" y="370" class="ff toggle-label">Members</text>
  <rect x="1262" y="346" width="40" height="22" rx="11" fill="#7D7AF2"/>
  <circle cx="1291" cy="357" r="8" fill="#FFFFFF"/>
  <text x="1108" y="416" class="ff muted">63 members</text>
  <text x="1207" y="450" class="ff plan-name" text-anchor="middle">Hygiene Essentials</text>
  <text x="1207" y="498" class="ff price" text-anchor="middle">$6.00</text>
  <text x="1257" y="498" class="ff price-unit">/Week</text>
  <text x="1108" y="546" class="ff bullet">✓ 2x Dental Cleans</text>
  <text x="1108" y="568" class="ff bullet">✓ 1x Exam + X-Rays</text>
  <text x="1108" y="590" class="ff bullet">✓ 10% off other treatments</text>
  <text x="1108" y="612" class="ff bullet">✓ Member-only event invites</text>
  <text x="1108" y="634" class="ff bullet" fill="#C2C0D8">— no whitening</text>
  <text x="1108" y="656" class="ff bullet" fill="#C2C0D8">— no priority booking</text>
  <rect x="1156" y="700" width="100" height="36" rx="8" fill="#7D7AF2"/>
  <text x="1206" y="722" class="ff btn-text" text-anchor="middle">✎ EDIT</text>
</svg>
